# xmcd
#
# Track frame offsets:
#	150
#	25060
#	46986
#	66952
#	87814
#	111724
#	134170
#	151688
#	173750
#	194252
#
# Disc length: 2855 seconds
#
# Revision: 1
# Processed by: cddbd v1.5.2PL0 Copyright (c) Steve Scherf et al.
# Submitted via: EZCDAudioConverter 8.0.2.1
#
DISCID=860b250a
DTITLE=Hồ Trung Dũng - Nhớ...
DYEAR=2010
DGENRE=World Pop
TTITLE0=Những ô cửa xanh
TTITLE1=Còn lại gì khi anh vắng em
TTITLE2=Mùa xuân đâu đó
TTITLE3=Mùa xuân trong đôi mắt em
TTITLE4=Dòng sông lơ đãng
TTITLE5=Ký ức còn mang
TTITLE6=Nhớ
TTITLE7=Những mùa hoa bỏ lại
TTITLE8=Thêm một lần nữa
TTITLE9=Giấc mộng
EXTD=
EXTT0=
EXTT1=
EXTT2=
EXTT3=
EXTT4=
EXTT5=
EXTT6=
EXTT7=
EXTT8=
EXTT9=
PLAYORDER=
